<?xml version="1.0" encoding="utf-8"?>
<!-- Generator: Adobe Illustrator 24.0.3, SVG Export Plug-In . SVG Version: 6.00 Build 0)  -->
<svg version="1.1" id="Layer_1" xmlns="http://www.w3.org/2000/svg" xmlns:xlink="http://www.w3.org/1999/xlink" x="0px" y="0px"
	 viewBox="0 0 400 200" style="enable-background:new 0 0 400 200;" xml:space="preserve">
<style type="text/css">
	.st0{fill:#F8F8F8;}
	.st1{fill:#F1F1F1;}
	.st2{fill:#EAEAEA;}
	.st3{fill:#E3E3E3;}
	.st4{fill:#DCDCDC;}
	.st5{fill:#D5D5D5;}
	.st6{fill:#CDCDCD;}
	.st7{fill:#C6C6C6;}
	.st8{fill:#BFBFBF;}
	.st9{fill:#B8B8B8;}
	.st10{fill:#B1B1B1;}
	.st11{fill:#AAAAAA;}
</style>
<g>
	<g>
		<path class="st0" d="M122.5,100c0-3.4,39.4,0.3,40.6-2.9c1.1-3-31.9-25-29.8-27.9c1.9-2.6,33.5,21.9,36.2,19.5
			c2.4-2.1-19.2-35.8-16.3-37.8c2.7-1.8,25.8,31,28.9,29.4c2.9-1.5-10.7-39.2-7.5-40.5c3-1.2,20,35.1,23.3,34.1
			c3.1-1-4.8-40.4-1.4-41.2c3.2-0.8,15.3,37.4,18.7,36.8c3.3-0.6-0.1-40.6,3.3-41.1c3.3-0.5,11.3,38.8,14.8,38.5
			c3.3-0.3,3.9-40.4,7.4-40.6c3.3-0.2,7.6,39.7,11.1,39.7c3.4,0,7.7-39.9,11.1-39.7c3.4,0.2,4,40.3,7.4,40.6
			c3.4,0.3,11.5-39,14.8-38.5c3.4,0.5,0.1,40.5,3.3,41.1c3.4,0.7,15.5-37.6,18.7-36.8c3.4,0.9-4.6,40.2-1.4,41.2
			c3.3,1.1,20.2-35.3,23.3-34.1c3.2,1.3-10.4,39-7.5,40.5c3.1,1.6,26.2-31.2,28.9-29.4c3,2-18.7,35.6-16.3,37.8
			c2.7,2.4,34.3-22.1,36.2-19.5c2.1,2.8-30.9,24.8-29.8,27.9c1.2,3.2,40.6-0.5,40.6,2.9c0,3.4-39.4-0.3-40.6,2.9
			c-1.1,3,31.9,25,29.8,27.9c-1.9,2.6-33.5-21.9-36.2-19.5c-2.4,2.1,19.2,35.8,16.3,37.8c-2.7,1.8-25.8-31-28.9-29.4
			c-2.9,1.5,10.7,39.2,7.5,40.5c-3,1.2-20-35.1-23.3-34.1c-3.1,1,4.8,40.4,1.4,41.2c-3.2,0.8-15.3-37.4-18.7-36.8
			c-3.3,0.6,0.1,40.6-3.3,41.1c-3.3,0.5-11.3-38.8-14.8-38.5c-3.3,0.3-3.9,40.4-7.4,40.6c-3.3,0.2-7.6-39.7-11.1-39.7
			c-3.4,0-7.7,39.9-11.1,39.7c-3.4-0.2-4-40.3-7.4-40.6c-3.4-0.3-11.5,39-14.8,38.5c-3.4-0.5-0.1-40.5-3.3-41.1
			c-3.4-0.7-15.5,37.6-18.7,36.8c-3.4-0.9,4.6-40.2,1.4-41.2c-3.3-1.1-20.2,35.3-23.3,34.1c-3.2-1.3,10.4-39,7.5-40.5
			c-3.1-1.6-26.2,31.2-28.9,29.4c-3-2,18.7-35.6,16.3-37.8c-2.7-2.4-34.3,22.1-36.2,19.5c-2.1-2.8,30.9-24.8,29.8-27.9
			C161.9,99.7,122.5,103.4,122.5,100z"/>
	</g>
	<g>
		<path class="st1" d="M102.6,100c0-3.4,39.4,0.3,40.6-2.9c1.1-3-31.9-25-29.8-27.9c1.9-2.6,33.5,21.9,36.2,19.5
			c2.4-2.1-19.2-35.8-16.3-37.8c2.7-1.8,25.8,31,28.9,29.4c2.9-1.5-10.7-39.2-7.5-40.5c3-1.2,20,35.1,23.3,34.1
			c3.1-1-4.8-40.4-1.4-41.2c3.2-0.8,15.3,37.4,18.7,36.8c3.3-0.6-0.1-40.6,3.3-41.1c3.3-0.5,11.3,38.8,14.8,38.5
			c3.3-0.3,3.9-40.4,7.4-40.6c3.3-0.2,7.6,39.7,11.1,39.7c3.4,0,7.7-39.9,11.1-39.7c3.4,0.2,4,40.3,7.4,40.6
			c3.4,0.3,11.5-39,14.8-38.5c3.4,0.5,0.1,40.5,3.3,41.1c3.4,0.7,15.5-37.6,18.7-36.8c3.4,0.9-4.6,40.2-1.4,41.2
			C289,75,305.9,38.6,309,39.8c3.2,1.3-10.4,39-7.5,40.5c3.1,1.6,26.2-31.2,28.9-29.4c3,2-18.7,35.6-16.3,37.8
			c2.7,2.4,34.3-22.1,36.2-19.5c2.1,2.8-30.9,24.8-29.8,27.9c1.2,3.2,40.6-0.5,40.6,2.9c0,3.4-39.4-0.3-40.6,2.9
			c-1.1,3,31.9,25,29.8,27.9c-1.9,2.6-33.5-21.9-36.2-19.5c-2.4,2.1,19.2,35.8,16.3,37.8c-2.7,1.8-25.8-31-28.9-29.4
			c-2.9,1.5,10.7,39.2,7.5,40.5c-3,1.2-20-35.1-23.3-34.1c-3.1,1,4.8,40.4,1.4,41.2c-3.2,0.8-15.3-37.4-18.7-36.8
			c-3.3,0.6,0.1,40.6-3.3,41.1c-3.3,0.5-11.3-38.8-14.8-38.5c-3.3,0.3-3.9,40.4-7.4,40.6c-3.3,0.2-7.6-39.7-11.1-39.7
			c-3.4,0-7.7,39.9-11.1,39.7c-3.4-0.2-4-40.3-7.4-40.6c-3.4-0.3-11.5,39-14.8,38.5c-3.4-0.5-0.1-40.5-3.3-41.1
			c-3.4-0.7-15.5,37.6-18.7,36.8c-3.4-0.9,4.6-40.2,1.4-41.2c-3.3-1.1-20.2,35.3-23.3,34.1c-3.2-1.3,10.4-39,7.5-40.5
			c-3.1-1.6-26.2,31.2-28.9,29.4c-3-2,18.7-35.6,16.3-37.8c-2.7-2.4-34.3,22.1-36.2,19.5c-2.1-2.8,30.9-24.8,29.8-27.9
			C142,99.7,102.6,103.4,102.6,100z"/>
	</g>
	<g>
		<path class="st2" d="M82.8,100c0-3.4,39.4,0.3,40.6-2.9c1.1-3-31.9-25-29.8-27.9c1.9-2.6,33.5,21.9,36.2,19.5
			c2.4-2.1-19.2-35.8-16.3-37.8c2.7-1.8,25.8,31,28.9,29.4c2.9-1.5-10.7-39.2-7.5-40.5c3-1.2,20,35.1,23.3,34.1
			c3.1-1-4.8-40.4-1.4-41.2c3.2-0.8,15.3,37.4,18.7,36.8c3.3-0.6-0.1-40.6,3.3-41.1c3.3-0.5,11.3,38.8,14.8,38.5
			c3.3-0.3,3.9-40.4,7.4-40.6c3.3-0.2,7.6,39.7,11.1,39.7c3.4,0,7.7-39.9,11.1-39.7c3.4,0.2,4,40.3,7.4,40.6
			c3.4,0.3,11.5-39,14.8-38.5c3.4,0.5,0.1,40.5,3.3,41.1c3.4,0.7,15.5-37.6,18.7-36.8c3.4,0.9-4.6,40.2-1.4,41.2
			c3.3,1.1,20.2-35.3,23.3-34.1c3.2,1.3-10.4,39-7.5,40.5c3.1,1.6,26.2-31.2,28.9-29.4c3,2-18.7,35.6-16.3,37.8
			c2.7,2.4,34.3-22.1,36.2-19.5c2.1,2.8-30.9,24.8-29.8,27.9c1.2,3.2,40.6-0.5,40.6,2.9c0,3.4-39.4-0.3-40.6,2.9
			c-1.1,3,31.9,25,29.8,27.9c-1.9,2.6-33.5-21.9-36.2-19.5c-2.4,2.1,19.2,35.8,16.3,37.8c-2.7,1.8-25.8-31-28.9-29.4
			c-2.9,1.5,10.7,39.2,7.5,40.5c-3,1.2-20-35.1-23.3-34.1c-3.1,1,4.8,40.4,1.4,41.2c-3.2,0.8-15.3-37.4-18.7-36.8
			c-3.3,0.6,0.1,40.6-3.3,41.1c-3.3,0.5-11.3-38.8-14.8-38.5c-3.3,0.3-3.9,40.4-7.4,40.6c-3.3,0.2-7.6-39.7-11.1-39.7
			c-3.4,0-7.7,39.9-11.1,39.7c-3.4-0.2-4-40.3-7.4-40.6c-3.4-0.3-11.5,39-14.8,38.5c-3.4-0.5-0.1-40.5-3.3-41.1
			c-3.4-0.7-15.5,37.6-18.7,36.8c-3.4-0.9,4.6-40.2,1.4-41.2c-3.3-1.1-20.2,35.3-23.3,34.1c-3.2-1.3,10.4-39,7.5-40.5
			c-3.1-1.6-26.2,31.2-28.9,29.4c-3-2,18.7-35.6,16.3-37.8c-2.7-2.4-34.3,22.1-36.2,19.5c-2.1-2.8,30.9-24.8,29.8-27.9
			C122.1,99.7,82.8,103.4,82.8,100z"/>
	</g>
	<g>
		<path class="st3" d="M62.9,100c0-3.4,39.4,0.3,40.6-2.9c1.1-3-31.9-25-29.8-27.9c1.9-2.6,33.5,21.9,36.2,19.5
			c2.4-2.1-19.2-35.8-16.3-37.8c2.7-1.8,25.8,31,28.9,29.4c2.9-1.5-10.7-39.2-7.5-40.5c3-1.2,20,35.1,23.3,34.1
			c3.1-1-4.8-40.4-1.4-41.2c3.2-0.8,15.3,37.4,18.7,36.8c3.3-0.6-0.1-40.6,3.3-41.1c3.3-0.5,11.3,38.8,14.8,38.5
			c3.3-0.3,3.9-40.4,7.4-40.6c3.3-0.2,7.6,39.7,11.1,39.7c3.4,0,7.7-39.9,11.1-39.7c3.4,0.2,4,40.3,7.4,40.6
			c3.4,0.3,11.5-39,14.8-38.5c3.4,0.5,0.1,40.5,3.3,41.1c3.4,0.7,15.5-37.6,18.7-36.8c3.4,0.9-4.6,40.2-1.4,41.2
			c3.3,1.1,20.2-35.3,23.3-34.1c3.2,1.3-10.4,39-7.5,40.5C264.9,82,288,49.2,290.7,51c3,2-18.7,35.6-16.3,37.8
			c2.7,2.4,34.3-22.1,36.2-19.5c2.1,2.8-30.9,24.8-29.8,27.9c1.2,3.2,40.6-0.5,40.6,2.9c0,3.4-39.4-0.3-40.6,2.9
			c-1.1,3,31.9,25,29.8,27.9c-1.9,2.6-33.5-21.9-36.2-19.5c-2.4,2.1,19.2,35.8,16.3,37.8c-2.7,1.8-25.8-31-28.9-29.4
			c-2.9,1.5,10.7,39.2,7.5,40.5c-3,1.2-20-35.1-23.3-34.1c-3.1,1,4.8,40.4,1.4,41.2c-3.2,0.8-15.3-37.4-18.7-36.8
			c-3.3,0.6,0.1,40.6-3.3,41.1c-3.3,0.5-11.3-38.8-14.8-38.5c-3.3,0.3-3.9,40.4-7.4,40.6c-3.3,0.2-7.6-39.7-11.1-39.7
			c-3.4,0-7.7,39.9-11.1,39.7c-3.4-0.2-4-40.3-7.4-40.6c-3.4-0.3-11.5,39-14.8,38.5c-3.4-0.5-0.1-40.5-3.3-41.1
			c-3.4-0.7-15.5,37.6-18.7,36.8c-3.4-0.9,4.6-40.2,1.4-41.2c-3.3-1.1-20.2,35.3-23.3,34.1c-3.2-1.3,10.4-39,7.5-40.5
			c-3.1-1.6-26.2,31.2-28.9,29.4c-3-2,18.7-35.6,16.3-37.8c-2.7-2.4-34.3,22.1-36.2,19.5c-2.1-2.8,30.9-24.8,29.8-27.9
			C102.3,99.7,62.9,103.4,62.9,100z"/>
	</g>
	<g>
		<path class="st4" d="M43,100c0-3.4,39.4,0.3,40.6-2.9c1.1-3-31.9-25-29.8-27.9c1.9-2.6,33.5,21.9,36.2,19.5
			c2.4-2.1-19.2-35.8-16.3-37.8c2.7-1.8,25.8,31,28.9,29.4c2.9-1.5-10.7-39.2-7.5-40.5c3-1.2,20,35.1,23.3,34.1
			c3.1-1-4.8-40.4-1.4-41.2c3.2-0.8,15.3,37.4,18.7,36.8c3.3-0.6-0.1-40.6,3.3-41.1c3.3-0.5,11.3,38.8,14.8,38.5
			c3.3-0.3,3.9-40.4,7.4-40.6c3.3-0.2,7.6,39.7,11.1,39.7c3.4,0,7.7-39.9,11.1-39.7c3.4,0.2,4,40.3,7.4,40.6
			c3.4,0.3,11.5-39,14.8-38.5c3.4,0.5,0.1,40.5,3.3,41.1c3.4,0.7,15.5-37.6,18.7-36.8c3.4,0.9-4.6,40.2-1.4,41.2
			c3.3,1.1,20.2-35.3,23.3-34.1c3.2,1.3-10.4,39-7.5,40.5C245,82,268.1,49.2,270.8,51c3,2-18.7,35.6-16.3,37.8
			c2.7,2.4,34.3-22.1,36.2-19.5c2.1,2.8-30.9,24.8-29.8,27.9c1.2,3.2,40.6-0.5,40.6,2.9c0,3.4-39.4-0.3-40.6,2.9
			c-1.1,3,31.9,25,29.8,27.9c-1.9,2.6-33.5-21.9-36.2-19.5c-2.4,2.1,19.2,35.8,16.3,37.8c-2.7,1.8-25.8-31-28.9-29.4
			c-2.9,1.5,10.7,39.2,7.5,40.5c-3,1.2-20-35.1-23.3-34.1c-3.1,1,4.8,40.4,1.4,41.2c-3.2,0.8-15.3-37.4-18.7-36.8
			c-3.3,0.6,0.1,40.6-3.3,41.1c-3.3,0.5-11.3-38.8-14.8-38.5c-3.3,0.3-3.9,40.4-7.4,40.6c-3.3,0.2-7.6-39.7-11.1-39.7
			c-3.4,0-7.7,39.9-11.1,39.7c-3.4-0.2-4-40.3-7.4-40.6c-3.4-0.3-11.5,39-14.8,38.5c-3.4-0.5-0.1-40.5-3.3-41.1
			c-3.4-0.7-15.5,37.6-18.7,36.8c-3.4-0.9,4.6-40.2,1.4-41.2c-3.3-1.1-20.2,35.3-23.3,34.1c-3.2-1.3,10.4-39,7.5-40.5
			c-3.1-1.6-26.2,31.2-28.9,29.4c-3-2,18.7-35.6,16.3-37.8c-2.7-2.4-34.3,22.1-36.2,19.5c-2.1-2.8,30.9-24.8,29.8-27.9
			C82.4,99.7,43,103.4,43,100z"/>
	</g>
	<g>
		<path class="st5" d="M23.2,100c0-3.4,39.4,0.3,40.6-2.9c1.1-3-31.9-25-29.8-27.9c1.9-2.6,33.5,21.9,36.2,19.5
			c2.4-2.1-19.2-35.8-16.3-37.8c2.7-1.8,25.8,31,28.9,29.4c2.9-1.5-10.7-39.2-7.5-40.5c3-1.2,20,35.1,23.3,34.1
			c3.1-1-4.8-40.4-1.4-41.2c3.2-0.8,15.3,37.4,18.7,36.8c3.3-0.6-0.1-40.6,3.3-41.1c3.3-0.5,11.3,38.8,14.8,38.5
			c3.3-0.3,3.9-40.4,7.4-40.6c3.3-0.2,7.6,39.7,11.1,39.7c3.4,0,7.7-39.9,11.1-39.7c3.4,0.2,4,40.3,7.4,40.6
			c3.4,0.3,11.5-39,14.8-38.5c3.4,0.5,0.1,40.5,3.3,41.1c3.4,0.7,15.5-37.6,18.7-36.8c3.4,0.9-4.6,40.2-1.4,41.2
			c3.3,1.1,20.2-35.3,23.3-34.1c3.2,1.3-10.4,39-7.5,40.5C225.2,82,248.3,49.2,251,51c3,2-18.7,35.6-16.3,37.8
			c2.7,2.4,34.3-22.1,36.2-19.5c2.1,2.8-30.9,24.8-29.8,27.9c1.2,3.2,40.6-0.5,40.6,2.9c0,3.4-39.4-0.3-40.6,2.9
			c-1.1,3,31.9,25,29.8,27.9c-1.9,2.6-33.5-21.9-36.2-19.5c-2.4,2.1,19.2,35.8,16.3,37.8c-2.7,1.8-25.8-31-28.9-29.4
			c-2.9,1.5,10.7,39.2,7.5,40.5c-3,1.2-20-35.1-23.3-34.1c-3.1,1,4.8,40.4,1.4,41.2c-3.2,0.8-15.3-37.4-18.7-36.8
			c-3.3,0.6,0.1,40.6-3.3,41.1c-3.3,0.5-11.3-38.8-14.8-38.5c-3.3,0.3-3.9,40.4-7.4,40.6c-3.3,0.2-7.6-39.7-11.1-39.7
			c-3.4,0-7.7,39.9-11.1,39.7c-3.4-0.2-4-40.3-7.4-40.6c-3.4-0.3-11.5,39-14.8,38.5c-3.4-0.5-0.1-40.5-3.3-41.1
			c-3.4-0.7-15.5,37.6-18.7,36.8c-3.4-0.9,4.6-40.2,1.4-41.2c-3.3-1.1-20.2,35.3-23.3,34.1c-3.2-1.3,10.4-39,7.5-40.5
			c-3.1-1.6-26.2,31.2-28.9,29.4c-3-2,18.7-35.6,16.3-37.8c-2.7-2.4-34.3,22.1-36.2,19.5c-2.1-2.8,30.9-24.8,29.8-27.9
			C62.5,99.7,23.2,103.4,23.2,100z"/>
	</g>
	<g>
		<path class="st6" d="M3.3,100c0-3.4,39.4,0.3,40.6-2.9c1.1-3-31.9-25-29.8-27.9c1.9-2.6,33.5,21.9,36.2,19.5
			C52.7,86.6,31.1,52.9,34,51c2.7-1.8,25.8,31,28.9,29.4c2.9-1.5-10.7-39.2-7.5-40.5c3-1.2,20,35.1,23.3,34.1
			c3.1-1-4.8-40.4-1.4-41.2c3.2-0.8,15.3,37.4,18.7,36.8c3.3-0.6-0.1-40.6,3.3-41.1c3.3-0.5,11.3,38.8,14.8,38.5
			c3.3-0.3,3.9-40.4,7.4-40.6c3.3-0.2,7.6,39.7,11.1,39.7c3.4,0,7.7-39.9,11.1-39.7c3.4,0.2,4,40.3,7.4,40.6
			c3.4,0.3,11.5-39,14.8-38.5c3.4,0.5,0.1,40.5,3.3,41.1c3.4,0.7,15.5-37.6,18.7-36.8c3.4,0.9-4.6,40.2-1.4,41.2
			c3.3,1.1,20.2-35.3,23.3-34.1c3.2,1.3-10.4,39-7.5,40.5c3.1,1.6,26.2-31.2,28.9-29.4c3,2-18.7,35.6-16.3,37.8
			c2.7,2.4,34.3-22.1,36.2-19.5c2.1,2.8-30.9,24.8-29.8,27.9c1.2,3.2,40.6-0.5,40.6,2.9c0,3.4-39.4-0.3-40.6,2.9
			c-1.1,3,31.9,25,29.8,27.9c-1.9,2.6-33.5-21.9-36.2-19.5c-2.4,2.1,19.2,35.8,16.3,37.8c-2.7,1.8-25.8-31-28.9-29.4
			c-2.9,1.5,10.7,39.2,7.5,40.5c-3,1.2-20-35.1-23.3-34.1c-3.1,1,4.8,40.4,1.4,41.2c-3.2,0.8-15.3-37.4-18.7-36.8
			c-3.3,0.6,0.1,40.6-3.3,41.1c-3.3,0.5-11.3-38.8-14.8-38.5c-3.3,0.3-3.9,40.4-7.4,40.6c-3.3,0.2-7.6-39.7-11.1-39.7
			c-3.4,0-7.7,39.9-11.1,39.7c-3.4-0.2-4-40.3-7.4-40.6c-3.4-0.3-11.5,39-14.8,38.5c-3.4-0.5-0.1-40.5-3.3-41.1
			c-3.4-0.7-15.5,37.6-18.7,36.8c-3.4-0.9,4.6-40.2,1.4-41.2c-3.3-1.1-20.2,35.3-23.3,34.1c-3.2-1.3,10.4-39,7.5-40.5
			C59.8,118,36.7,150.8,34,149c-3-2,18.7-35.6,16.3-37.8c-2.7-2.4-34.3,22.1-36.2,19.5c-2.1-2.8,30.9-24.8,29.8-27.9
			C42.7,99.7,3.3,103.4,3.3,100z"/>
	</g>
	<g>
		<path class="st7" d="M-16.5,100c0-3.4,39.4,0.3,40.6-2.9c1.1-3-31.9-25-29.8-27.9c1.9-2.6,33.5,21.9,36.2,19.5
			c2.4-2.1-19.2-35.8-16.3-37.8c2.7-1.8,25.8,31,28.9,29.4c2.9-1.5-10.7-39.2-7.5-40.5c3-1.2,20,35.1,23.3,34.1
			c3.1-1-4.8-40.4-1.4-41.2c3.2-0.8,15.3,37.4,18.7,36.8c3.3-0.6-0.1-40.6,3.3-41.1c3.3-0.5,11.3,38.8,14.8,38.5
			c3.3-0.3,3.9-40.4,7.4-40.6c3.3-0.2,7.6,39.7,11.1,39.7c3.4,0,7.7-39.9,11.1-39.7c3.4,0.2,4,40.3,7.4,40.6
			c3.4,0.3,11.5-39,14.8-38.5c3.4,0.5,0.1,40.5,3.3,41.1c3.4,0.7,15.5-37.6,18.7-36.8c3.4,0.9-4.6,40.2-1.4,41.2
			c3.3,1.1,20.2-35.3,23.3-34.1c3.2,1.3-10.4,39-7.5,40.5c3.1,1.6,26.2-31.2,28.9-29.4c3,2-18.7,35.6-16.3,37.8
			c2.7,2.4,34.3-22.1,36.2-19.5c2.1,2.8-30.9,24.8-29.8,27.9c1.2,3.2,40.6-0.5,40.6,2.9c0,3.4-39.4-0.3-40.6,2.9
			c-1.1,3,31.9,25,29.8,27.9c-1.9,2.6-33.5-21.9-36.2-19.5c-2.4,2.1,19.2,35.8,16.3,37.8c-2.7,1.8-25.8-31-28.9-29.4
			c-2.9,1.5,10.7,39.2,7.5,40.5c-3,1.2-20-35.1-23.3-34.1c-3.1,1,4.8,40.4,1.4,41.2c-3.2,0.8-15.3-37.4-18.7-36.8
			c-3.3,0.6,0.1,40.6-3.3,41.1c-3.3,0.5-11.3-38.8-14.8-38.5c-3.3,0.3-3.9,40.4-7.4,40.6c-3.3,0.2-7.6-39.7-11.1-39.7
			c-3.4,0-7.7,39.9-11.1,39.7c-3.4-0.2-4-40.3-7.4-40.6c-3.4-0.3-11.5,39-14.8,38.5c-3.4-0.5-0.1-40.5-3.3-41.1
			c-3.4-0.7-15.5,37.6-18.7,36.8c-3.4-0.9,4.6-40.2,1.4-41.2c-3.3-1.1-20.2,35.3-23.3,34.1c-3.2-1.3,10.4-39,7.5-40.5
			C40,118,16.9,150.8,14.2,149c-3-2,18.7-35.6,16.3-37.8c-2.7-2.4-34.3,22.1-36.2,19.5c-2.1-2.8,30.9-24.8,29.8-27.9
			C22.8,99.7-16.5,103.4-16.5,100z"/>
	</g>
	<g>
		<path class="st8" d="M-36.4,100c0-3.4,39.4,0.3,40.6-2.9c1.1-3-31.9-25-29.8-27.9c1.9-2.6,33.5,21.9,36.2,19.5
			C13,86.6-8.7,52.9-5.7,51c2.7-1.8,25.8,31,28.9,29.4c2.9-1.5-10.7-39.2-7.5-40.5c3-1.2,20,35.1,23.3,34.1c3.1-1-4.8-40.4-1.4-41.2
			c3.2-0.8,15.3,37.4,18.7,36.8c3.3-0.6-0.1-40.6,3.3-41.1C63,27.8,71,67.2,74.4,66.8c3.3-0.3,3.9-40.4,7.4-40.6
			C85.1,26.1,89.4,66,92.8,66c3.4,0,7.7-39.9,11.1-39.7c3.4,0.2,4,40.3,7.4,40.6c3.4,0.3,11.5-39,14.8-38.5
			c3.4,0.5,0.1,40.5,3.3,41.1c3.4,0.7,15.5-37.6,18.7-36.8c3.4,0.9-4.6,40.2-1.4,41.2c3.3,1.1,20.2-35.3,23.3-34.1
			c3.2,1.3-10.4,39-7.5,40.5c3.1,1.6,26.2-31.2,28.9-29.4c3,2-18.7,35.6-16.3,37.8c2.7,2.4,34.3-22.1,36.2-19.5
			c2.1,2.8-30.9,24.8-29.8,27.9c1.2,3.2,40.6-0.5,40.6,2.9c0,3.4-39.4-0.3-40.6,2.9c-1.1,3,31.9,25,29.8,27.9
			c-1.9,2.6-33.5-21.9-36.2-19.5c-2.4,2.1,19.2,35.8,16.3,37.8c-2.7,1.8-25.8-31-28.9-29.4c-2.9,1.5,10.7,39.2,7.5,40.5
			c-3,1.2-20-35.1-23.3-34.1c-3.1,1,4.8,40.4,1.4,41.2c-3.2,0.8-15.3-37.4-18.7-36.8c-3.3,0.6,0.1,40.6-3.3,41.1
			c-3.3,0.5-11.3-38.8-14.8-38.5c-3.3,0.3-3.9,40.4-7.4,40.6c-3.3,0.2-7.6-39.7-11.1-39.7c-3.4,0-7.7,39.9-11.1,39.7
			c-3.4-0.2-4-40.3-7.4-40.6c-3.4-0.3-11.5,39-14.8,38.5c-3.4-0.5-0.1-40.5-3.3-41.1c-3.4-0.7-15.5,37.6-18.7,36.8
			c-3.4-0.9,4.6-40.2,1.4-41.2c-3.3-1.1-20.2,35.3-23.3,34.1c-3.2-1.3,10.4-39,7.5-40.5C20.1,118-3,150.8-5.7,149
			c-3-2,18.7-35.6,16.3-37.8c-2.7-2.4-34.3,22.1-36.2,19.5c-2.1-2.8,30.9-24.8,29.8-27.9C2.9,99.7-36.4,103.4-36.4,100z"/>
	</g>
	<g>
		<path class="st9" d="M-56.3,100c0-3.4,39.4,0.3,40.6-2.9c1.1-3-31.9-25-29.8-27.9c1.9-2.6,33.5,21.9,36.2,19.5
			c2.4-2.1-19.2-35.8-16.3-37.8c2.7-1.8,25.8,31,28.9,29.4c2.9-1.5-10.7-39.2-7.5-40.5c3-1.2,20,35.1,23.3,34.1
			c3.1-1-4.8-40.4-1.4-41.2c3.2-0.8,15.3,37.4,18.7,36.8c3.3-0.6-0.1-40.6,3.3-41.1c3.3-0.5,11.3,38.8,14.8,38.5
			c3.3-0.3,3.9-40.4,7.4-40.6C65.3,26.1,69.6,66,73,66c3.4,0,7.7-39.9,11.1-39.7c3.4,0.2,4,40.3,7.4,40.6c3.4,0.3,11.5-39,14.8-38.5
			c3.4,0.5,0.1,40.5,3.3,41.1c3.4,0.7,15.5-37.6,18.7-36.8c3.4,0.9-4.6,40.2-1.4,41.2c3.3,1.1,20.2-35.3,23.3-34.1
			c3.2,1.3-10.4,39-7.5,40.5c3.1,1.6,26.2-31.2,28.9-29.4c3,2-18.7,35.6-16.3,37.8c2.7,2.4,34.3-22.1,36.2-19.5
			c2.1,2.8-30.9,24.8-29.8,27.9c1.2,3.2,40.6-0.5,40.6,2.9c0,3.4-39.4-0.3-40.6,2.9c-1.1,3,31.9,25,29.8,27.9
			c-1.9,2.6-33.5-21.9-36.2-19.5c-2.4,2.1,19.2,35.8,16.3,37.8c-2.7,1.8-25.8-31-28.9-29.4c-2.9,1.5,10.7,39.2,7.5,40.5
			c-3,1.2-20-35.1-23.3-34.1c-3.1,1,4.8,40.4,1.4,41.2c-3.2,0.8-15.3-37.4-18.7-36.8c-3.3,0.6,0.1,40.6-3.3,41.1
			c-3.3,0.5-11.3-38.8-14.8-38.5c-3.3,0.3-3.9,40.4-7.4,40.6C80.7,173.9,76.4,134,73,134c-3.4,0-7.7,39.9-11.1,39.7
			c-3.4-0.2-4-40.3-7.4-40.6c-3.4-0.3-11.5,39-14.8,38.5c-3.4-0.5-0.1-40.5-3.3-41.1c-3.4-0.7-15.5,37.6-18.7,36.8
			c-3.4-0.9,4.6-40.2,1.4-41.2c-3.3-1.1-20.2,35.3-23.3,34.1c-3.2-1.3,10.4-39,7.5-40.5C0.2,118-22.9,150.8-25.6,149
			c-3-2,18.7-35.6,16.3-37.8c-2.7-2.4-34.3,22.1-36.2,19.5c-2.1-2.8,30.9-24.8,29.8-27.9C-16.9,99.7-56.3,103.4-56.3,100z"/>
	</g>
	<g>
		<path class="st10" d="M-76.1,100c0-3.4,39.4,0.3,40.6-2.9c1.1-3-31.9-25-29.8-27.9c1.9-2.6,33.5,21.9,36.2,19.5
			c2.4-2.1-19.2-35.8-16.3-37.8c2.7-1.8,25.8,31,28.9,29.4c2.9-1.5-10.7-39.2-7.5-40.5c3-1.2,20,35.1,23.3,34.1
			c3.1-1-4.8-40.4-1.4-41.2c3.2-0.8,15.3,37.4,18.7,36.8c3.3-0.6-0.1-40.6,3.3-41.1c3.3-0.5,11.3,38.8,14.8,38.5
			c3.3-0.3,3.9-40.4,7.4-40.6C45.4,26.1,49.7,66,53.1,66c3.4,0,7.7-39.9,11.1-39.7c3.4,0.2,4,40.3,7.4,40.6
			c3.4,0.3,11.5-39,14.8-38.5c3.4,0.5,0.1,40.5,3.3,41.1c3.4,0.7,15.5-37.6,18.7-36.8c3.4,0.9-4.6,40.2-1.4,41.2
			c3.3,1.1,20.2-35.3,23.3-34.1c3.2,1.3-10.4,39-7.5,40.5C125.9,82,149,49.2,151.7,51c3,2-18.7,35.6-16.3,37.8
			c2.7,2.4,34.3-22.1,36.2-19.5c2.1,2.8-30.9,24.8-29.8,27.9c1.2,3.2,40.6-0.5,40.6,2.9c0,3.4-39.4-0.3-40.6,2.9
			c-1.1,3,31.9,25,29.8,27.9c-1.9,2.6-33.5-21.9-36.2-19.5c-2.4,2.1,19.2,35.8,16.3,37.8c-2.7,1.8-25.8-31-28.9-29.4
			c-2.9,1.5,10.7,39.2,7.5,40.5c-3,1.2-20-35.1-23.3-34.1c-3.1,1,4.8,40.4,1.4,41.2c-3.2,0.8-15.3-37.4-18.7-36.8
			c-3.3,0.6,0.1,40.6-3.3,41.1c-3.3,0.5-11.3-38.8-14.8-38.5c-3.3,0.3-3.9,40.4-7.4,40.6c-3.3,0.2-7.6-39.7-11.1-39.7
			c-3.4,0-7.7,39.9-11.1,39.7c-3.4-0.2-4-40.3-7.4-40.6c-3.4-0.3-11.5,39-14.8,38.5c-3.4-0.5-0.1-40.5-3.3-41.1
			c-3.4-0.7-15.5,37.6-18.7,36.8c-3.4-0.9,4.6-40.2,1.4-41.2C-4,125-20.9,161.4-24,160.2c-3.2-1.3,10.4-39,7.5-40.5
			c-3.1-1.6-26.2,31.2-28.9,29.4c-3-2,18.7-35.6,16.3-37.8c-2.7-2.4-34.3,22.1-36.2,19.5c-2.1-2.8,30.9-24.8,29.8-27.9
			C-36.8,99.7-76.1,103.4-76.1,100z"/>
	</g>
	<g>
		<path class="st11" d="M-96,100c0-3.4,39.4,0.3,40.6-2.9c1.1-3-31.9-25-29.8-27.9c1.9-2.6,33.5,21.9,36.2,19.5
			c2.4-2.1-19.2-35.8-16.3-37.8c2.7-1.8,25.8,31,28.9,29.4c2.9-1.5-10.7-39.2-7.5-40.5c3-1.2,20,35.1,23.3,34.1
			c3.1-1-4.8-40.4-1.4-41.2c3.2-0.8,15.3,37.4,18.7,36.8C0,68.8-3.3,28.8,0.1,28.3c3.3-0.5,11.3,38.8,14.8,38.5
			c3.3-0.3,3.9-40.4,7.4-40.6C25.5,26.1,29.8,66,33.2,66c3.4,0,7.7-39.9,11.1-39.7c3.4,0.2,4,40.3,7.4,40.6
			c3.4,0.3,11.5-39,14.8-38.5c3.4,0.5,0.1,40.5,3.3,41.1c3.4,0.7,15.5-37.6,18.7-36.8c3.4,0.9-4.6,40.2-1.4,41.2
			c3.3,1.1,20.2-35.3,23.3-34.1c3.2,1.3-10.4,39-7.5,40.5C106,82,129.1,49.2,131.8,51c3,2-18.7,35.6-16.3,37.8
			c2.7,2.4,34.3-22.1,36.2-19.5c2.1,2.8-30.9,24.8-29.8,27.9c1.2,3.2,40.6-0.5,40.6,2.9c0,3.4-39.4-0.3-40.6,2.9
			c-1.1,3,31.9,25,29.8,27.9c-1.9,2.6-33.5-21.9-36.2-19.5c-2.4,2.1,19.2,35.8,16.3,37.8c-2.7,1.8-25.8-31-28.9-29.4
			c-2.9,1.5,10.7,39.2,7.5,40.5c-3,1.2-20-35.1-23.3-34.1c-3.1,1,4.8,40.4,1.4,41.2c-3.2,0.8-15.3-37.4-18.7-36.8
			c-3.3,0.6,0.1,40.6-3.3,41.1c-3.3,0.5-11.3-38.8-14.8-38.5c-3.3,0.3-3.9,40.4-7.4,40.6C41,173.9,36.7,134,33.2,134
			c-3.4,0-7.7,39.9-11.1,39.7c-3.4-0.2-4-40.3-7.4-40.6c-3.4-0.3-11.5,39-14.8,38.5c-3.4-0.5-0.1-40.5-3.3-41.1
			c-3.4-0.7-15.5,37.6-18.7,36.8c-3.4-0.9,4.6-40.2,1.4-41.2c-3.3-1.1-20.2,35.3-23.3,34.1c-3.2-1.3,10.4-39,7.5-40.5
			c-3.1-1.6-26.2,31.2-28.9,29.4c-3-2,18.7-35.6,16.3-37.8c-2.7-2.4-34.3,22.1-36.2,19.5c-2.1-2.8,30.9-24.8,29.8-27.9
			C-56.6,99.7-96,103.4-96,100z"/>
	</g>
</g>
</svg>
