<?xml version="1.0" encoding="utf-8"?>
<!-- Generator: Adobe Illustrator 24.0.3, SVG Export Plug-In . SVG Version: 6.00 Build 0)  -->
<svg version="1.1" id="Layer_1" xmlns="http://www.w3.org/2000/svg" xmlns:xlink="http://www.w3.org/1999/xlink" x="0px" y="0px"
	 viewBox="0 0 1920 560" style="enable-background:new 0 0 1920 560;" xml:space="preserve">
<style type="text/css">
	.st0{fill:#FFFA72;}
	.st1{fill:#F8F8F8;}
	.st2{fill:#F1F1F1;}
	.st3{fill:#EAEAEA;}
	.st4{fill:#E3E3E3;}
	.st5{fill:#DCDCDC;}
	.st6{fill:#D5D5D5;}
	.st7{fill:#CDCDCD;}
	.st8{fill:#C6C6C6;}
	.st9{fill:#BFBFBF;}
	.st10{fill:#B8B8B8;}
	.st11{fill:#B1B1B1;}
	.st12{fill:#AAAAAA;}
</style>
<g>
	<path class="st0" d="M1016.7-98c-68.9,71-55.9,115.5,39.2,133.6c142.6,27,481.5,37.8,623.3,96.5s573.8,13.3,647.6-87.4
		c73.8-100.6,206.9-255.9-494.5-255.9C1364.5-211.2,1092.7-173.5,1016.7-98L1016.7-98z"/>
	<path class="st1" d="M2,42.1c46.8,198.8,233.6,323.5,560.6,374c490.6,75.7,1476.3,106,2071.2,270.2S4285.1,723.6,4152,441.6
		c-133.2-281.9-284.8-716.4-2249.1-716.4C593.4-274.7-40.2-169.1,2,42.1L2,42.1z"/>
	<path class="st2" d="M78.1,30.4C100,218.6,262.9,336.6,566.7,384.3c455.8,71.6,1385.3,100.3,1929.8,255.8
		c544.6,155.5,1558.7,35.3,1464.4-231.5c-94.5-266.8-189.1-678-2048.1-678C673.4-269.4,61.8-169.4,78.1,30.4L78.1,30.4z"/>
	<path class="st3" d="M156.1,18.8c0.5,177.5,141.6,288.8,423.1,333.8c422.3,67.6,1296.1,94.6,1793.3,241.3s1466.7,33.3,1406.2-218.4
		c-60.7-251.7-106-639.7-1859.7-639.7C749.8-264.1,162.2-169.8,156.1,18.8L156.1,18.8z"/>
	<path class="st4" d="M235.9,7.1c-17.6,166.8,103.5,271.5,363.5,313.8c390,63.5,1208.6,89,1660.9,226.9S3635.7,579,3604.5,342.5
		c-31.2-236.7-34.1-601.3-1682.7-601.3C822.9-258.8,260.9-170.2,235.9,7.1L235.9,7.1z"/>
	<path class="st5" d="M317.3-4.6c-33,156.2,70.2,254.1,309.6,293.8c358.9,59.5,1122.7,83.3,1532.7,212.4
		c409.8,129.1,1284.4,29.2,1278.6-192.2c-5.9-221.5,27.2-562.9-1516.2-562.9C892.9-253.5,358.2-170.5,317.3-4.6L317.3-4.6z"/>
	<path class="st6" d="M400.4-16.3C354.9,129.3,441.8,220.6,661,257.5c328.9,55.5,1038.3,77.6,1408,197.8s1194.1,27.2,1209.6-179.2
		s78.6-524.6-1359.4-524.6C960.3-248.2,454.1-171,400.4-16.3L400.4-16.3z"/>
	<path class="st7" d="M484.6-27.9C429.1,107,501.3,191.6,701.1,225.8c299.7,51.4,955.2,72,1286.9,183.4s1104.3,25.2,1137.5-166
		c33.3-191.3,121-486.2-1211.9-486.2C1025-242.9,548.7-171.3,484.6-27.9L484.6-27.9z"/>
	<path class="st8" d="M570.3-39.6C507.2,84.6,566.1,162.6,747,194.1c271.5,47.4,873.5,66.3,1168.9,168.9
		c295.6,102.6,1014.7,23.2,1062.5-152.9c47.6-176.2,154.8-447.7-1072.9-447.7C1087.1-237.7,642-171.6,570.3-39.6L570.3-39.6z"/>
	<path class="st9" d="M657.4-51.3C589,62.4,635.9,133.5,798.6,162.3c244.1,43.3,792.9,60.6,1054.1,154.5s925.9,21.4,984.7-139.8
		s180.3-409.4-942.2-409.4C1146.9-232.3,734.4-172,657.4-51.3L657.4-51.3z"/>
	<path class="st10" d="M745.4-63c-71.5,103-34.9,167.5,110.1,193.6c217.6,39.3,713.4,54.9,942.2,140S2634.9,290,2701.9,144
		c66.9-146,198-371-819.2-371C1204.5-227.1,825.5-172.4,745.4-63L745.4-63z"/>
	<path class="st11" d="M834.7-74.6C761.8,17.7,789.5,75.5,917.3,99c191.7,35.1,635,49.3,833.1,125.4
		c198.1,76.3,749,17.3,821.2-113.5c72.2-130.9,208.2-332.6-703.7-332.6C1259.9-221.8,915.5-172.7,834.7-74.6L834.7-74.6z"/>
	<path class="st12" d="M925.2-86.3C853.4-4.7,873,46.5,984.2,67.3c166.8,31.1,557.8,43.6,726.9,111
		c169.1,67.5,661.2,15.3,735.7-100.5C2521.1-38,2658-216.5,1851.2-216.5C1313.3-216.4,1004.7-173.1,925.2-86.3L925.2-86.3z"/>
</g>
</svg>
